<svg id="Layer_1" enable-background="new 0 0 100.25 100.25" height="512" viewBox="0 0 100.25 100.25" width="512" xmlns="http://www.w3.org/2000/svg"><g><path d="m21.5 71.25h2.649l-3.419 11.497c-.236.794.216 1.629 1.01 1.865.143.043.287.062.428.062.646 0 1.244-.421 1.438-1.072l3.673-12.353h10.394l3.673 12.353c.194.651.791 1.072 1.438 1.072.142 0 .286-.02.428-.062.794-.236 1.246-1.071 1.01-1.865l-3.419-11.497h2.697c.829 0 1.5-.672 1.5-1.5s-.671-1.5-1.5-1.5h-3.589l-2.877-9.675c-.027-.091-.064-.175-.105-.256 3.067-1.567 5.176-4.751 5.176-8.426 0-4.402-3.026-8.102-7.105-9.153v-6.99c0-.829-.671-1.5-1.5-1.5s-1.5.671-1.5 1.5v6.713c-4.918.333-8.821 4.429-8.821 9.43 0 3.574 1.992 6.689 4.923 8.299-.076.117-.142.242-.184.383l-2.877 9.675h-3.541c-.829 0-1.5.672-1.5 1.5s.671 1.5 1.5 1.5zm4.679-21.357c0-3.563 2.899-6.463 6.463-6.463s6.463 2.899 6.463 6.463-2.899 6.463-6.463 6.463-6.463-2.899-6.463-6.463zm4.615 9.538c.025-.083.038-.167.048-.251.583.113 1.184.177 1.8.177.504 0 .995-.051 1.478-.127.01.067.018.134.038.201l2.623 8.819h-8.609z"/><path d="m53.5 84.25h8c.828 0 1.5-.672 1.5-1.5v-40.005c0-.195-.038-.388-.112-.568l-4-9.769c-.23-.563-.778-.932-1.388-.932s-1.157.368-1.388.932l-4 9.769c-.081.197-.117.402-.112.602v39.971c0 .828.672 1.5 1.5 1.5zm1.5-3v-3h5v3zm2.5-44.315 2.5 6.106v32.209h-5v-32.209z"/><path d="m72.5 16.25h-60c-.829 0-1.5.671-1.5 1.5v77c0 .828.671 1.5 1.5 1.5h60c.828 0 1.5-.672 1.5-1.5v-77c0-.829-.672-1.5-1.5-1.5zm-1.5 77h-57v-74h57z"/><path d="m84.5 4.25h-60c-.829 0-1.5.671-1.5 1.5v8c0 .829.671 1.5 1.5 1.5s1.5-.671 1.5-1.5v-6.5h57v74h-5.5c-.828 0-1.5.672-1.5 1.5s.672 1.5 1.5 1.5h7c.828 0 1.5-.672 1.5-1.5v-77c0-.829-.672-1.5-1.5-1.5z"/></g></svg>