<svg id="Capa_1" fill="#ffffff" enable-background="new 0 0 507.941 507.941" height="512" viewBox="0 0 507.941 507.941" width="512" xmlns="http://www.w3.org/2000/svg"><path d="m125.481 165.392c0-5.523 4.477-10.001 10.001-10.001s10.001 4.477 10.001 10.001-4.477 10.001-10.001 10.001-10.001-4.478-10.001-10.001zm308.361 133.729-111.5-10.13-30.995 86.95h55.115c5.522 0 10 4.478 10 10v30h20c5.522 0 10 4.478 10 10v62h5c5.522 0 10 4.478 10 10s-4.478 10-10 10h-270c-5.522 0-10-4.478-10-10s4.478-10 10-10h5v-62c0-5.522 4.478-10 10-10h20v-30c0-5.522 4.478-10 10-10h57.291l-38.081-116.87-116.391-45.76c-6.34-1.854-9.561-12.306-1.59-17.82l24.24-14.97c.01 0 .021 0 .021-.011 11.138-6.86 21.627 10.17 10.489 17.03l-7.239 4.47 102.18 40.171c2.78 1.1 4.92 3.359 5.85 6.21l41.562 127.55h25.324l35.983-100.971c1.521-4.26 5.811-7.01 10.33-6.6l99.51 9.04-56.33-93c-1.58-2.61-1.869-5.87-.79-8.729l39.431-103.841-103.271 28.771c-3.08.85-6.51.14-8.989-1.88l-84.53-68.761-6.54 105.49c-.2 3.24-1.96 6.19-4.72 7.891l-11.181 6.909c-11.339 7.002-21.849-10.018-10.51-17.02l6.77-4.18 7.421-119.74c.598-7.38 9.598-12.412 16.29-7.14l95.609 77.77 117.34-32.68c8.746-1.878 14.94 5.863 12.03 13.189l-44.72 117.76 64.05 105.77c4.677 6.436-1.129 15.726-9.459 15.132zm-245.38 136.82h-42v52h42zm116 0h-96v52h96zm20 0v52h42v-52zm12-40h-160v20h160z"/></svg>