<svg id="Layer_1" fill="#d7570c" enable-background="new 0 0 480 480" height="512" viewBox="0 0 480 480" width="512" xmlns="http://www.w3.org/2000/svg"><path d="m91 441.5c0 4.418-3.582 8-8 8h-75c-4.418 0-8-3.582-8-8s3.582-8 8-8h75c4.418 0 8 3.582 8 8zm95-353c30.878 0 56 25.122 56 56v14c0 4.418-3.582 8-8 8h-96c-4.418 0-8-3.582-8-8v-14c0-30.878 25.122-56 56-56zm-40 56v6h80v-6c0-22.056-17.944-40-40-40s-40 17.944-40 40zm-79.5 273c4.418 0 8.006-3.583 8-8.011l-.42-312.675c-.037-27.798 22.447-50.314 50.247-50.314h3.427c16.04 0 30.741 7.39 40.333 20.275 2.638 3.543 7.65 4.278 11.194 1.64s4.278-7.65 1.64-11.194c-12.456-16.731-32.332-26.72-53.167-26.72h-3.427c-36.649 0-66.296 29.683-66.247 66.335l.42 312.675c.006 4.414 3.586 7.989 8 7.989zm377.5-109v-52.163c0-23.62-19.217-42.837-42.837-42.837h-218.326c-23.62 0-42.837 19.217-42.837 42.837v19.163c0 4.418 3.582 8 8 8s8-3.582 8-8v-19.163c0-14.798 12.039-26.837 26.837-26.837h102.163v90c0 4.418 3.582 8 8 8s8-3.582 8-8v-90h100.163c14.798 0 26.837 12.039 26.837 26.837v52.375c-17.965 1.936-32 17.186-32 35.658v7.13c0 4.418 3.582 8 8 8s8-3.582 8-8v-7.13c0-10.956 8.913-19.87 19.869-19.87h12.262c10.956 0 19.869 8.914 19.869 19.87v69.261c0 10.956-8.913 19.87-19.869 19.87h-32.131c0-52.36.039-49.138-.069-50 .61-4.885-3.21-9-7.931-9h-179c-4.418 0-8 3.582-8 8s3.582 8 8 8h171v51c0 4.418 3.582 8 8 8h40.131c19.778 0 35.869-16.091 35.869-35.87v-69.261c0-19.52-15.779-35.87-36-35.87zm-81 125c-7.234 0-209.768 0-221.13 0-10.956 0-19.87-8.914-19.87-19.87v-69.26c0-10.956 8.914-19.87 19.87-19.87h12.261c10.956 0 19.87 8.914 19.87 19.87v45.13c0 4.418 3.582 8 8 8s8-3.582 8-8v-45.13c0-19.779-16.091-35.87-35.87-35.87h-12.261c-19.779 0-35.87 16.091-35.87 35.87v69.261c0 19.779 16.091 35.87 35.87 35.87h221.13c4.418 0 8-3.582 8-8s-3.582-8.001-8-8.001z"/></svg>