<svg height="512" fill="#d7570c" viewBox="0 0 512 512" width="512" xmlns="http://www.w3.org/2000/svg"><g><path d="m408 88h-320.8a40 40 0 0 0 -79.2 8v272a40.04 40.04 0 0 0 40 40h360a8 8 0 0 0 8-8v-304a8 8 0 0 0 -8-8zm-384 8a24 24 0 0 1 48 0v232.02a39.92 39.92 0 0 0 -48 0zm376 296h-352a24.032 24.032 0 0 1 -24-24v-8a24 24 0 0 1 48 0 8 8 0 0 0 16 0v-256h312z"/><path d="m496 240h-48a8 8 0 0 0 -8 8v184h-216a8 8 0 0 0 -8 8v48a8 8 0 0 0 8 8h272a8 8 0 0 0 8-8v-240a8 8 0 0 0 -8-8zm-8 240h-256v-32h16v8a8 8 0 0 0 16 0v-8h8v8a8 8 0 0 0 16 0v-8h8v8a8 8 0 0 0 16 0v-8h8v8a8 8 0 0 0 16 0v-8h8v8a8 8 0 0 0 16 0v-8h8v8a8 8 0 0 0 16 0v-8h8v8a8 8 0 0 0 16 0v-8h8v8a8 8 0 0 0 16 0v-8h56zm0-48h-32v-176h32z"/><circle cx="472" cy="464" r="8"/><path d="m109.47 47.59 48 16a8.032 8.032 0 0 0 2.53.41h236a20.023 20.023 0 0 0 20-20v-8a20.023 20.023 0 0 0 -20-20h-236a8.032 8.032 0 0 0 -2.53.41l-48 16a8 8 0 0 0 0 15.18zm274.53-15.59h12a4 4 0 0 1 4 4v8a4 4 0 0 1 -4 4h-12zm-24 0h8v16h-8zm-176 0h160v16h-160zm-22.7 0h6.7v16h-6.7l-24-8z"/><path d="m112 376h192a8 8 0 0 0 8-8v-96a8 8 0 0 0 -8-8h-88v-88a8 8 0 0 0 -8-8h-96a8 8 0 0 0 -8 8v192a8 8 0 0 0 8 8zm8-96h24a8 8 0 0 0 0-16h-24v-80h80v80h-24a8 8 0 0 0 0 16h24v24a8 8 0 0 0 16 0v-24h80v80h-80v-24a8 8 0 0 0 -16 0v24h-80z"/><path d="m240 136h136a8 8 0 0 0 0-16h-136a8 8 0 0 0 0 16z"/><path d="m240 160h136a8 8 0 0 0 0-16h-136a8 8 0 0 0 0 16z"/><path d="m240 184h72a8 8 0 0 0 0-16h-72a8 8 0 0 0 0 16z"/><path d="m240 216h136a8 8 0 0 0 0-16h-136a8 8 0 0 0 0 16z"/><path d="m240 240h72a8 8 0 0 0 0-16h-72a8 8 0 0 0 0 16z"/></g></svg>